<svg xmlns="http://www.w3.org/2000/svg" xmlns:xlink="http://www.w3.org/1999/xlink" version="1.1" x="0px" y="0px" viewBox="0 0 50 62.5" style="enable-background:new 0 0 50 50;" xml:space="preserve"><path d="M30.4556274,22.6435547h-9.8544312c-1.8300171,0-3.3135376,1.4835815-3.3135376,3.3135986v1.0463257  c0,1.8300171,1.4835205,3.3135986,3.3135376,3.3135986h9.8544312c1.8300171,0,3.3135376-1.4835815,3.3135376-3.3135986v-1.0463257  C33.769165,24.1271362,32.2856445,22.6435547,30.4556274,22.6435547z M30.6600342,24.9691162  c0.2542114,0,0.4945068,0.0628052,0.7043457,0.1744385h-1.4092407  C30.164978,25.0319214,30.4052734,24.9691162,30.6600342,24.9691162z M29.5703125,25.4342041h2.1789551  c0.0847168,0.0872192,0.1585083,0.1849365,0.2192993,0.2906494h-2.6171265  C29.4117432,25.6191406,29.4855347,25.5214233,29.5703125,25.4342041z M29.2218628,26.0154419h2.8763428  c0.0299072,0.0932007,0.0513306,0.1899414,0.0632935,0.2906494H29.15802  C29.1699829,26.2053833,29.1914063,26.1086426,29.2218628,26.0154419z M20.3509521,24.9691162  c0.2547607,0,0.4945068,0.0628052,0.7044067,0.1744385h-1.4088135  C19.8564453,25.0319214,20.0961914,24.9691162,20.3509521,24.9691162z M19.2617188,25.4342041h2.1784668  c0.0852661,0.0872192,0.1589966,0.1849365,0.2193604,0.2906494h-2.6171875  C19.1027222,25.6191406,19.1764526,25.5214233,19.2617188,25.4342041z M18.9127808,26.0154419h2.8763428  c0.0303955,0.0932007,0.0518799,0.1899414,0.0632935,0.2906494h-3.0029907  C18.8609009,26.2053833,18.8823853,26.1086426,18.9127808,26.0154419z M20.3509521,27.9920044  c-0.2961426,0-0.5717773-0.0847168-0.8045654-0.2327881h1.6091309  C20.9227295,27.9072876,20.6470337,27.9920044,20.3509521,27.9920044z M21.4940186,27.4685669h-2.2861328  c-0.0767822-0.0881958-0.1435547-0.1859131-0.1973877-0.2905884h2.6809082  C21.6375732,27.2826538,21.5708008,27.3803711,21.4940186,27.4685669z M21.8065796,26.8873291h-2.9112549  c-0.0269165-0.093689-0.043396-0.1904297-0.0513306-0.2906494h3.013916  C21.8499756,26.6968994,21.8334961,26.7936401,21.8065796,26.8873291z M27.5189209,27.9885254  c0,0.4725952-0.3833008,0.855957-0.855896,0.855957h-2.2407837c-0.4730835,0-0.855957-0.3833618-0.855957-0.855957V27.604187  h3.9526367V27.9885254z M30.6600342,27.9920044c-0.2961426,0-0.5723267-0.0847168-0.8046265-0.2327881h1.6087036  C31.2318115,27.9072876,30.9556274,27.9920044,30.6600342,27.9920044z M31.8026123,27.4685669h-2.2856445  c-0.0767822-0.0881958-0.1436157-0.1859131-0.197937-0.2905884h2.6814575  C31.946167,27.2826538,31.8793335,27.3803711,31.8026123,27.4685669z M32.1156616,26.8873291h-2.9112549  c-0.0269165-0.093689-0.0438843-0.1904297-0.0513916-0.2906494h3.0134888  C32.1589966,26.6968994,32.1420898,26.7936401,32.1156616,26.8873291z"/><circle cx="36.975296" cy="26.5362549" r="0.93013"/><circle cx="13.8945313" cy="26.5861206" r="0.9301147"/><path d="M39.2502441,23.1260986c-1.4296875-5.3100586-6.2856445-9.2302856-12.0413818-9.2302856h-1.4725952v-0.8105469  c0.9960327-0.1156616,1.7722168-0.963623,1.7722168-1.9905396c0-1.1051636-0.899292-2.0045166-2.0045166-2.0045166  c-1.1056519,0-2.0049438,0.899353-2.0049438,2.0045166c0,1,0.7362671,1.8309937,1.6948853,1.9805298v0.8205566H23.798584  c-5.7597046,0-10.6191406,3.9257202-12.0443726,9.2422485c-0.9506226,0.1615601-1.6749268,0.9890747-1.6749268,1.986084v1.6306152  c-0.6057129,0.039856-1.0852661,0.5438232-1.0852661,1.1594849v3.4237671c0,1.7477417,1.4172363,3.164978,3.164978,3.164978  h1.727356c0.4820557,0.4092407,1.0328979,0.7667236,1.6540527,1.0727539  c1.7841187,0.8808594,4.0662842,1.2692261,6.3110352,1.4352417l-0.2936401,0.8808594  c-0.9042358,0.1051636-1.7806396,0.3942871-2.5697632,0.8533936c-0.9137573,0.5319214-1.6924438,1.2781982-2.262207,2.1645508  h1.2322998c1.0383911-1.2607422,2.6106567-2.0663452,4.3679199-2.0663452h6.2781372  c1.7572021,0,3.3300171,0.8051147,4.3679199,2.0663452h1.2322998c-0.0478516-0.0753174-0.0977173-0.1490479-0.1485596-0.2213745  c-1.1141968-1.5897217-2.8599243-2.6066895-4.7642212-2.805542l-0.2866211-0.8604736  c2.2930908-0.1594849,4.6380615-0.5463257,6.4625854-1.4466553c2.3449707-1.1569824,3.6919556-3.039856,4.0862427-5.7263184  c0.838501-0.2437744,1.4521484-1.017395,1.4521484-1.9351807v-2.7901001  C41.0059814,24.0991821,40.2402954,23.2532349,39.2502441,23.1260986z M12.1589966,33.3399658  c-1.1056519,0-2.0019531-0.8963013-2.0019531-2.0019531v-2.8704224c0.1814575,0.6375732,0.668457,1.1455688,1.2930908,1.3564453  c0.1989136,1.3793335,0.647583,2.5483398,1.3534546,3.5159302H12.1589966z M38.680481,28.0692749  c0,3.281189-1.1610107,5.3823853-3.6540527,6.6126709c-2.6021729,1.2841797-6.4561157,1.4486694-9.5224609,1.4486694  c-3.0667725,0-6.9207153-0.1644897-9.5223999-1.4486694c-0.1166382-0.0578003-0.2297974-0.1176147-0.3405151-0.1789551h7.2253418  c0.1605225,0.4082642,0.557312,0.6973877,1.0224609,0.6973877h2.6096191c0.6066895,0,1.0982666-0.4915161,1.0982666-1.0982056  v-0.4391479c0-0.6062012-0.4915771-1.0982056-1.0982666-1.0982056H23.888855c-0.4940186,0-0.9118042,0.3264771-1.0493774,0.7751465  h-8.7367554c-1.2029419-1.2472534-1.7756958-2.9680786-1.7756958-5.2706909v-1.704895  c0-6.3255005,5.1460571-11.4715576,11.4715576-11.4715576h1.3953247v0.0109863h0.5423584v-0.0109863h1.4725952  c6.3255615,0,11.4716187,5.1460571,11.4716187,11.4715576V28.0692749z"/><text x="0" y="65" fill="#000000" font-size="5px" font-weight="bold" font-family="'Helvetica Neue', Helvetica, Arial-Unicode, Arial, Sans-serif">Created by Arun Prem</text><text x="0" y="70" fill="#198754" font-size="5px" font-weight="bold" font-family="'Helvetica Neue', Helvetica, Arial-Unicode, Arial, Sans-serif">from the Noun Project</text></svg>